<?xml version="1.0" encoding="utf-8"?>
<!-- Generator: Adobe Illustrator 17.0.0, SVG Export Plug-In . SVG Version: 6.00 Build 0)  -->
<!DOCTYPE svg PUBLIC "-//W3C//DTD SVG 1.1//EN" "http://www.w3.org/Graphics/SVG/1.1/DTD/svg11.dtd">
<svg version="1.1" id="Layer_1" xmlns="http://www.w3.org/2000/svg" xmlns:xlink="http://www.w3.org/1999/xlink" x="0px" y="0px"
	 width="154.513px" height="15.49px" viewBox="0 0 154.513 15.49" enable-background="new 0 0 154.513 15.49" xml:space="preserve">
<g>
	<path fill-rule="evenodd" clip-rule="evenodd" fill="#000100" d="M7.117,8.559L14.3,15.07h6.059l-2.769-1.515l-6.274-5.318
		c0,0,5.688-0.53,5.688-3.719c0-3.19-4.999-3.827-8.612-3.827c-3.613,0-8.077,0-8.077,0l2.604,2.497v9.568L0,15.07h8.878
		l-2.666-2.259V8.559H7.117L7.117,8.559z M9.67,1.276c2.764,0,3.773,1.435,3.773,3.508c0,2.072-2.023,3.135-3.882,3.135
		c-1.275,0-2.626-0.026-3.35-0.041V1.276C6.211,1.276,6.903,1.276,9.67,1.276z"/>
	<path fill-rule="evenodd" clip-rule="evenodd" fill="#000100" d="M34.55,15.07h7.923l-2.558-2.154L31.675,0l-8.029,12.916
		l-2.598,2.154h6.168l-2.452-2.259l1.437-2.339h8.815l1.334,2.339L34.55,15.07L34.55,15.07z M26.56,9.887l4.21-6.856l3.917,6.856
		H26.56z"/>
	<path fill-rule="evenodd" clip-rule="evenodd" fill="#000100" d="M146.599,15.07h7.915l-2.555-2.154L143.718,0l-8.026,12.916
		l-2.598,2.154h6.165l-2.449-2.259l1.435-2.339h8.815l1.337,2.339L146.599,15.07L146.599,15.07z M138.603,9.887l4.212-6.856
		l3.914,6.856H138.603z"/>
	<path fill-rule="evenodd" clip-rule="evenodd" fill="#000100" d="M52.406,0.639c-3.667,0-8.932,0.104-8.932,0.104l2.604,2.498
		v9.515l-2.807,2.314h8.715l-2.718-2.208v-4.41c0.833,0,2.018,0,3.19,0c3.564,0,7.654-1.276,7.654-3.987
		C60.112,1.754,56.07,0.639,52.406,0.639L52.406,0.639z M53.363,7.92c-0.811,0-2.821,0-4.096,0V1.223c0,0,2.552,0,3.987,0
		s3.401,1.223,3.401,3.348C56.656,6.697,54.584,7.92,53.363,7.92z"/>
	<path fill-rule="evenodd" clip-rule="evenodd" fill="#000100" d="M76.592,4.678l-1.223-3.986l-3.135-0.213
		c0,0-2.075-0.532-5.531-0.107c-3.456,0.426-5.579,2.339-5.419,5.103c0.157,2.763,3.347,3.294,5.897,3.294
		c2.555,0,6.539,0,6.594,2.394c0.051,2.392-2.126,3.188-4.093,3.296c-1.969,0.106-4.041-0.372-4.041-0.372l-4.253-3.616l1.172,4.146
		c0,0,3.342,0.187,4.356,0.32c1.017,0.133,6.168,0.317,8.134-1.436c1.966-1.752,2.634-5.354-0.583-6.484
		c-3.933-1.382-10.312,0.639-10.312-3.19c0-3.67,6.06-3.243,8.132-2.765L76.592,4.678z"/>
	<path fill-rule="evenodd" clip-rule="evenodd" fill="#000100" d="M103.38,3.241l-2.712-2.498c0,0,5.108,0,9.993,0
		c4.893,0,10.849,2.235,10.849,6.912c0,4.676-5.045,7.414-10.947,7.414c-5.897,0-9.998,0-9.998,0l2.816-2.367V3.241L103.38,3.241z
		 M106.624,14.298c0,0,11.376,1.009,11.376-6.378c0-7.389-11.321-6.432-11.321-6.432L106.624,14.298z"/>
	<polygon fill-rule="evenodd" clip-rule="evenodd" fill="#000100" points="126.077,3.188 126.077,12.811 123.055,15.07 
		132.25,15.07 129.481,12.756 129.481,3.241 132.299,0.743 123.158,0.743 	"/>
	<path fill-rule="evenodd" clip-rule="evenodd" fill="#000100" d="M78.7,7.974c0-4.153,4.579-7.519,10.223-7.519
		s10.226,3.366,10.226,7.519c0,4.151-4.581,7.516-10.226,7.516S78.7,12.126,78.7,7.974L78.7,7.974z M88.923,14.948
		c3.727,0,6.748-3.122,6.748-6.974c0-3.854-3.022-6.978-6.748-6.978c-3.727,0-6.751,3.123-6.751,6.978
		C82.171,11.826,85.196,14.948,88.923,14.948z"/>
</g>
</svg>
